<svg width="32" height="32" viewBox="0 0 32 32" fill="none" xmlns="http://www.w3.org/2000/svg">
<path d="M3.27447 12.2787C3.11321 11.1221 4.88124 10.6593 5.92268 10.4785L7.14014 11.2622C7.06619 12.3117 7.05827 14.3516 6.73289 14.3796C6.32618 14.4146 3.51366 13.9943 3.27447 12.2787Z" fill="black"/>
<path d="M11.7544 5.38916C15.0026 5.38928 17.6362 8.03678 17.6362 11.3022C17.6362 12.4122 17.3304 13.45 16.8007 14.3372C16.6684 14.5587 16.7752 14.8554 17.0259 14.9163C22.0193 16.1278 23.2699 14.9099 25.561 13.7485C27.9452 12.5401 28.3571 13.3565 28.6646 13.7153C28.9717 14.0755 28.4676 19.2356 23.6021 23.644C18.7358 28.0531 9.88492 27.0409 6.9126 23.9058C4.76227 21.6373 6.5535 18.0486 7.90614 16.2557C8.02976 16.0918 8.00285 15.8591 7.84976 15.7223C6.63726 14.6394 5.87265 13.061 5.87256 11.3022C5.87256 8.03671 8.50609 5.38916 11.7544 5.38916Z" fill="#FFD412"/>
<path d="M11.7544 5.38916L11.7544 4.65592H11.7544V5.38916ZM17.6362 11.3022L18.3695 11.3023V11.3022H17.6362ZM25.561 13.7485L25.2295 13.0945L25.2295 13.0945L25.561 13.7485ZM28.6646 13.7153L29.2225 13.2395L29.2214 13.2383L28.6646 13.7153ZM23.6021 23.644L24.0944 24.1874L24.0944 24.1874L23.6021 23.644ZM6.9126 23.9058L6.38044 24.4102L6.38048 24.4102L6.9126 23.9058ZM5.87256 11.3022H5.13932V11.3023L5.87256 11.3022ZM7.90614 16.2557L8.4915 16.6973L7.90614 16.2557ZM16.8007 14.3372L17.4302 14.7131L16.8007 14.3372ZM17.0259 14.9163L17.1988 14.2037L17.0259 14.9163ZM11.7544 5.38916L11.7544 6.1224C14.594 6.12251 16.903 8.4381 16.903 11.3022H17.6362H18.3695C18.3695 7.63547 15.4112 4.65605 11.7544 4.65592L11.7544 5.38916ZM17.6362 11.3022L16.903 11.3022C16.9029 12.2758 16.6351 13.1842 16.1711 13.9613L16.8007 14.3372L17.4302 14.7131C18.0257 13.7158 18.3694 12.5487 18.3695 11.3023L17.6362 11.3022ZM17.0259 14.9163L16.853 15.6288C19.4155 16.2506 21.1035 16.2703 22.4805 15.9346C23.8133 15.6097 24.8378 14.9372 25.8925 14.4026L25.561 13.7485L25.2295 13.0945C23.9931 13.7212 23.2468 14.2383 22.1332 14.5098C21.0637 14.7706 19.6297 14.7935 17.1988 14.2037L17.0259 14.9163ZM25.561 13.7485L25.8925 14.4026C27.0418 13.82 27.5477 13.8188 27.7321 13.8599C27.8786 13.8925 27.8878 13.9357 28.1077 14.1924L28.6646 13.7153L29.2214 13.2383C29.1339 13.1362 28.7834 12.5917 28.051 12.4285C27.3566 12.2738 26.4644 12.4686 25.2295 13.0945L25.561 13.7485ZM28.6646 13.7153L28.1066 14.1911C28.0435 14.117 28.0159 14.0505 28.0069 14.0273C28.0011 14.0123 27.9977 14.001 27.9959 13.9946C27.995 13.9913 27.9943 13.9888 27.994 13.9872C27.9936 13.9856 27.9934 13.9847 27.9934 13.9846C27.9934 13.9846 27.9938 13.9869 27.9946 13.992C27.9953 13.997 27.9962 14.004 27.9972 14.0132C27.9991 14.0318 28.0009 14.0568 28.0019 14.0888C28.0063 14.2213 27.9969 14.4275 27.9605 14.7022C27.888 15.248 27.7157 16.0118 27.3851 16.9078C26.7251 18.6967 25.4447 20.9851 23.1097 23.1007L23.6021 23.644L24.0944 24.1874C26.6249 21.8946 28.0293 19.3986 28.761 17.4154C29.1263 16.4252 29.3265 15.556 29.4142 14.8952C29.4578 14.5666 29.4754 14.2761 29.4676 14.0402C29.4637 13.9236 29.4532 13.8035 29.4301 13.6909C29.4134 13.6089 29.3686 13.4109 29.2225 13.2395L28.6646 13.7153ZM23.6021 23.644L23.1097 23.1007C20.8585 25.1404 17.6364 25.9612 14.5686 25.871C11.475 25.7801 8.74408 24.7718 7.44471 23.4013L6.9126 23.9058L6.38048 24.4102C8.05344 26.1748 11.2341 27.2402 14.5256 27.3369C17.8429 27.4344 21.4794 26.5567 24.0944 24.1874L23.6021 23.644ZM6.9126 23.9058L7.44475 23.4013C6.60711 22.5177 6.49233 21.3506 6.80747 20.0788C7.1241 18.8009 7.85194 17.545 8.4915 16.6973L7.90614 16.2557L7.32079 15.8141C6.6077 16.7593 5.76361 18.1942 5.38404 19.726C5.00299 21.2639 5.06775 23.0254 6.38044 24.4102L6.9126 23.9058ZM7.84976 15.7223L8.33819 15.1755C7.27516 14.226 6.60588 12.8438 6.6058 11.3022L5.87256 11.3022L5.13932 11.3023C5.13942 13.2781 5.99936 15.0528 7.36132 16.2692L7.84976 15.7223ZM5.87256 11.3022H6.6058C6.6058 8.438 8.91471 6.1224 11.7544 6.1224V5.38916V4.65592C8.09747 4.65592 5.13932 7.63542 5.13932 11.3022H5.87256ZM7.90614 16.2557L8.4915 16.6973C8.85328 16.2177 8.76526 15.5569 8.33819 15.1755L7.84976 15.7223L7.36132 16.2692C7.24044 16.1613 7.20625 15.9659 7.32079 15.8141L7.90614 16.2557ZM16.8007 14.3372L16.1711 13.9613C15.8155 14.5568 16.0673 15.4382 16.853 15.6288L17.0259 14.9163L17.1988 14.2037C17.3314 14.2359 17.4197 14.3331 17.4553 14.427C17.4892 14.5165 17.4845 14.6222 17.4302 14.7131L16.8007 14.3372Z" fill="black"/>
<path d="M4.68459 12.29C4.66256 12.3781 5.36563 12.6975 5.71992 12.8462C5.73093 12.7746 5.57122 12.1137 5.53268 12.0311C5.49413 11.9485 4.71212 12.1798 4.68459 12.29Z" fill="#FF5912"/>
<ellipse cx="9.51187" cy="9.31981" rx="0.746728" ry="0.781726" fill="black"/>
</svg>
